<mxfile host="app.diagrams.net" modified="2023-09-17T01:41:35.859Z" agent="Mozilla/5.0 (Windows NT 10.0; Win64; x64) AppleWebKit/537.36 (KHTML, like Gecko) Chrome/116.0.0.0 Safari/537.36" version="21.7.5" etag="kY9jqbyJ3kVoS8Nfh4BO" type="github">
  <diagram name="PÃ¡gina-1" id="KM19SgrHwHomDQCSFyO0">
    <mxGraphModel>
      <root>
        <mxCell id="0" />
        <mxCell id="1" parent="0" />
      </root>
    </mxGraphModel>
  </diagram>
</mxfile>
